<?xml version="1.0" encoding="utf-8"?>
<!-- Generator: Adobe Illustrator 25.2.1, SVG Export Plug-In . SVG Version: 6.00 Build 0)  -->
<svg version="1.1" id="object" xmlns="http://www.w3.org/2000/svg" xmlns:xlink="http://www.w3.org/1999/xlink" x="0px" y="0px"
	 viewBox="0 0 300 300" style="enable-background:new 0 0 300 300;" xml:space="preserve">
<path id="path" d="M298,140.5c-1.2-3.1-3-5.9-5.2-8.2L167.8,7.3c-9.8-9.8-25.7-9.8-35.5,0c-9.8,9.8-9.8,25.7,0,35.5l82.4,82.2H25.1
	c-13.8,0-25,11.2-25,25s11.2,25,25,25h189.6l-82.4,82.2c-9.8,9.7-9.9,25.5-0.1,35.3c0,0,0.1,0.1,0.1,0.1c9.7,9.8,25.5,9.9,35.3,0.1
	c0,0,0.1-0.1,0.1-0.1l124.9-124.9c2.3-2.4,4.1-5.2,5.2-8.2C300.5,153.4,300.5,146.6,298,140.5"/>
</svg>
