<?xml version="1.0" encoding="utf-8"?>
<!-- Generator: Adobe Illustrator 25.2.1, SVG Export Plug-In . SVG Version: 6.00 Build 0)  -->
<svg version="1.1" id="object" xmlns="http://www.w3.org/2000/svg" xmlns:xlink="http://www.w3.org/1999/xlink" x="0px" y="0px"
	 viewBox="0 0 1440 196" style="enable-background:new 0 0 1440 196;" xml:space="preserve">
<style type="text/css">
	.st0{fill:#0E0E10;}
</style>
<path id="path" class="st0" d="M0,4l48,26.7C96,57,192,111,288,105.3C384,100,480,36,576,20s192,16,288,53.3
	c96,37.7,192,79.7,288,85.4c96,5.3,192-26.7,240-42.7l48-16v96h-48c-48,0-144,0-240,0s-192,0-288,0s-192,0-288,0s-192,0-288,0
	s-192,0-240,0H0V4z"/>
</svg>
