<?xml version="1.0" encoding="utf-8"?>
<!-- Generator: Adobe Illustrator 25.2.1, SVG Export Plug-In . SVG Version: 6.00 Build 0)  -->
<svg version="1.1" id="object" xmlns="http://www.w3.org/2000/svg" xmlns:xlink="http://www.w3.org/1999/xlink" x="0px" y="0px"
	 viewBox="0 0 300 300" style="enable-background:new 0 0 300 300;" xml:space="preserve">
<path id="path" d="M263.1,185.7v-71.3c11.7-2.8,20.4-13.4,20.4-26c0-14.8-12-26.7-26.7-26.7c-7.6,0-14.4,3.2-19.3,8.3l-61.8-35.7
	c0.7-2.4,1.1-4.9,1.1-7.5C176.7,12,164.8,0,150,0c-14.8,0-26.7,12-26.7,26.7c0,2.6,0.4,5.1,1.1,7.5L62.5,69.9
	c-4.9-5.1-11.7-8.3-19.3-8.3c-14.8,0-26.7,12-26.7,26.7c0,12.6,8.7,23.1,20.4,26v71.3c-11.7,2.8-20.4,13.4-20.4,26
	c0,14.8,12,26.7,26.7,26.7c7.6,0,14.4-3.2,19.3-8.3l61.8,35.7c-0.7,2.4-1.1,4.9-1.1,7.5c0,14.8,12,26.7,26.7,26.7
	c14.8,0,26.7-12,26.7-26.7c0-2.6-0.4-5.1-1.1-7.5l61.8-35.7c4.9,5.1,11.7,8.3,19.3,8.3c14.8,0,26.7-12,26.7-26.7
	C283.5,199.1,274.8,188.5,263.1,185.7z M231.1,80.9c-0.7,2.4-1.1,4.9-1.1,7.5c0,12.6,8.7,23.1,20.4,26v71.3
	c-0.4,0.1-0.8,0.2-1.1,0.3L168.5,46c0.3-0.3,0.6-0.5,0.8-0.8L231.1,80.9z M230.8,205.3H69.2c-1.2-5-3.9-9.5-7.5-13l80.8-140
	c2.4,0.7,4.9,1.1,7.5,1.1s5.1-0.4,7.5-1.1l80.8,139.9C234.7,195.8,232,200.3,230.8,205.3z M130.7,45.2c0.3,0.3,0.5,0.6,0.8,0.8
	L50.7,186c-0.4-0.1-0.8-0.2-1.1-0.3v-71.4c11.7-2.9,20.4-13.4,20.4-26c0-2.6-0.4-5.1-1.1-7.5L130.7,45.2z M169.3,254.8
	c-4.9-5.1-11.7-8.3-19.3-8.3s-14.4,3.2-19.3,8.3l-61.8-35.7c0.1-0.4,0.2-0.8,0.3-1.1h161.6c0.1,0.4,0.2,0.8,0.3,1.1L169.3,254.8z"/>
</svg>
