<?xml version="1.0" encoding="utf-8"?>
<!-- Generator: Adobe Illustrator 25.2.1, SVG Export Plug-In . SVG Version: 6.00 Build 0)  -->
<svg version="1.1" id="object" xmlns="http://www.w3.org/2000/svg" xmlns:xlink="http://www.w3.org/1999/xlink" x="0px" y="0px"
	 viewBox="0 0 300 300" style="enable-background:new 0 0 300 300;" xml:space="preserve">
<path id="path" d="M153,253.1c-1.9-0.4-3.9-1.1-5.8-1.7l-1.5-0.4c-1.9-0.6-3.9-1.3-5.6-1.9l-0.9-0.2c-1.7-0.6-3.4-1.3-4.9-1.9
	l-1.5-0.6c-1.7-0.6-3.6-1.5-5.4-2.1l-1.1-0.4c-1.5-0.6-3-1.3-4.5-2.1l-1.3-0.6c-1.3-0.6-2.4-1.3-3.4-1.7c-0.9-0.4-1.5-0.9-2.4-1.3
	c-1.5-0.9-2.8-1.5-4.3-2.4l-1.5-0.9c-1.9-1.1-3.6-2.1-5.6-3.4l-1.5-1.1c-1.3-0.9-2.6-1.7-3.9-2.6l-1.3-0.9c-1.3-0.9-2.6-1.7-3.6-2.6
	l-1.7-1.3c-1.1-0.9-2.1-1.7-3.4-2.6l-1.5-1.3c-1.5-1.1-2.8-2.4-4.1-3.4l-0.4-0.4c-1.5-1.3-3-2.6-4.3-4.1l-1.3-1.3
	c-1.1-1.1-2.1-1.9-3.2-3l-1.3-1.3c-1.3-1.3-2.6-2.8-3.9-4.1l-0.2-0.2c-1.3-1.5-2.6-3-3.9-4.5l-1.1-1.3c-0.9-1.1-1.9-2.4-2.8-3.4
	l-1.1-1.3c-1.1-1.5-2.1-2.8-3.2-4.3C27.2,147.4,16.7,92.4,40,47.2L19.2,73.3c-26.5,38.3-23.3,87.8-3,128.4c0.4,1.1,1.1,1.9,1.5,2.8
	l0.9,1.9l0.6,1.1l1.1,1.9c0.6,1.1,1.3,2.1,1.9,3.2l1.1,1.7c0.6,1.3,1.5,2.4,2.1,3.4l0.9,1.5c1.1,1.5,2.1,3.2,3.2,4.7v0.2l0.6,0.6
	c0.9,1.3,1.9,2.6,3,3.9l1.1,1.5c0.9,1.1,1.7,2.4,2.8,3.4l1.1,1.3c1.3,1.5,2.6,3,3.9,4.3l0,0l0.2,0.2c1.3,1.3,2.6,2.8,3.9,4.1
	l1.3,1.3c1.1,1.1,2.1,1.9,3,3l1.3,1.3c1.5,1.3,2.8,2.6,4.3,3.9l0,0l0.6,0.6c1.3,1.1,2.6,2.1,3.9,3.2L62,258c1.1,0.9,2.1,1.7,3.2,2.6
	l1.7,1.3c1.3,0.9,2.4,1.7,3.6,2.6l1.3,0.9l0.4,0.2c1.1,0.9,2.4,1.5,3.4,2.4l1.4,1c1.7,1.1,3.6,2.4,5.6,3.4l1.5,0.9
	c1.3,0.9,2.8,1.5,4.1,2.4c0.9,0.4,1.5,0.9,2.4,1.1c1.1,0.4,1.9,1.1,3,1.5l0.6,0.4l1.3,0.6c1.5,0.6,3,1.5,4.7,2.1l1.1,0.4
	c1.7,0.9,3.6,1.5,5.4,2.4l1.3,0.4c1.7,0.6,3.4,1.3,5.1,1.9l0.6,0.2c1.9,0.6,3.9,1.3,5.8,1.9l1.3,0.4c1.9,0.6,3.9,1.3,6,1.7
	C255,314,292.5,213.6,292.5,213.6C261.3,254.4,205.7,265.1,153,253.1z M106.8,149.3c2.8,4.1,6,9,9.8,12.4c1.3,1.5,2.8,3,4.3,4.5
	l1.3,0.9c1.5,1.3,3,2.8,4.5,4.1l0.2,0.2l0,0c1.7,1.5,3.4,2.8,5.1,4.3l1.1,0.9c1.7,1.3,3.6,2.6,5.4,3.9l0.2,0.2
	c0.9,0.6,1.7,1.1,2.4,1.7l1.1,0.9c1.3,0.9,2.6,1.7,4.1,2.4l0.6,0.4c1.1,0.6,2.4,1.3,3.4,1.9l1.3,0.6c0.9,0.4,1.7,0.9,2.6,1.3
	l0.4,0.2c1.7,0.9,3.4,1.7,5.1,2.4l1.1,0.4c1.3,0.6,2.8,1.1,4.3,1.7l1.7,0.6c1.3,0.4,2.6,0.9,3.9,1.3l1.7,0.6
	c1.9,0.6,3.6,1.3,5.6,1.7c99.1,16.5,122-59.9,122-59.9c-20.5,29.8-60.6,43.9-103.2,32.7c-1.9-0.4-3.9-1.1-5.6-1.7l-1.7-0.6
	c-1.3-0.4-2.6-0.9-3.9-1.3l-1.7-0.6c-1.5-0.6-2.8-1.1-4.3-1.7l-1.1-0.4c-1.7-0.9-3.4-1.5-5.1-2.4c-0.9-0.4-1.7-0.9-2.6-1.3l-1.7-0.9
	c-1.1-0.6-2.1-1.3-3.2-1.9l-0.9-0.4c-1.3-0.9-2.6-1.5-4.1-2.4l-1.3-0.9c-0.9-0.6-1.7-1.1-2.6-1.7c-1.9-1.3-3.6-2.6-5.4-3.9l-1.3-0.9
	c-18.6-14.8-33.4-34.9-40.5-57.6c-7.1-23.8-5.6-50.3,7.3-71.9l-15.6,22c-19.3,27.6-18.2,64.6-3.2,93.7
	C101,139.9,103.8,144.6,106.8,149.3L106.8,149.3z M211.2,115.1c0.9,0.2,1.7,0.6,2.4,0.9l1.1,0.4c1.1,0.4,2.4,0.9,3.4,1.1
	c54.8,10.5,69.6-28,73.4-33.8c-13.1,18.6-34.9,23.1-61.6,16.7c-2.1-0.4-4.5-1.3-6.4-1.9c-2.6-0.9-5.1-1.9-7.7-3.2
	c-4.7-2.4-9.2-5.1-13.5-8.1c-23.8-18.4-38.5-53.1-22.9-81.3l-8.6,11.8c-11.3,16.7-12.4,37.2-4.5,55.6
	C174.6,92.6,191.5,107.8,211.2,115.1z"/>
</svg>
