<?xml version="1.0" encoding="utf-8"?>
<!-- Generator: Adobe Illustrator 25.2.1, SVG Export Plug-In . SVG Version: 6.00 Build 0)  -->
<svg version="1.1" id="object" xmlns="http://www.w3.org/2000/svg" xmlns:xlink="http://www.w3.org/1999/xlink" x="0px" y="0px"
	 viewBox="0 0 300 300" style="enable-background:new 0 0 300 300;" xml:space="preserve">
<path id="path" d="M0,0v300h300V0H0z M163.3,234c0,29.2-17.1,42.5-42.1,42.5c-22.6,0-35.6-11.7-42.3-25.8l23-13.9
	c4.4,7.8,8.4,14.5,18.2,14.5c9.2,0,15.1-3.6,15.1-17.7v-95.8h28.2V234L163.3,234z M229.9,276.5c-26.2,0-43.1-12.5-51.4-28.8l23-13.3
	c6,9.8,13.9,17.1,27.8,17.1c11.7,0,19.2-5.8,19.2-13.9c0-9.6-7.6-13-20.5-18.8l-7-3c-20.4-8.6-33.8-19.5-33.8-42.5
	c0-21.2,16.1-37.2,41.2-37.2c17.9,0,30.8,6.2,40.1,22.6l-22,14.1c-4.8-8.6-10.1-12-18.2-12c-8.2,0-13.5,5.2-13.5,12
	c0,8.4,5.2,11.9,17.3,17.1l7,3c24,10.2,37.4,20.8,37.4,44.3C276.6,262.6,256.7,276.5,229.9,276.5L229.9,276.5z"/>
</svg>
