<?xml version="1.0" encoding="utf-8"?>
<!-- Generator: Adobe Illustrator 25.2.1, SVG Export Plug-In . SVG Version: 6.00 Build 0)  -->
<svg version="1.1" id="object" xmlns="http://www.w3.org/2000/svg" xmlns:xlink="http://www.w3.org/1999/xlink" x="0px" y="0px"
	 viewBox="0 0 300 300" style="enable-background:new 0 0 300 300;" xml:space="preserve">
<path id="path" d="M295.6,67.9c0-0.1-0.1-0.3-0.2-0.4c-0.1-0.3-0.2-0.5-0.3-0.7c-0.1-0.2-0.2-0.3-0.3-0.4c-0.1-0.2-0.3-0.4-0.4-0.6
	c-0.1-0.1-0.3-0.2-0.5-0.3c-0.2-0.2-0.3-0.3-0.5-0.4L237,32.6c-1.5-0.8-3.2-0.8-4.7,0L175.9,65l0,0c-0.2,0.1-0.3,0.3-0.5,0.4
	c-0.2,0.1-0.3,0.2-0.5,0.3c-0.1,0.2-0.3,0.3-0.4,0.5c-0.1,0.2-0.2,0.3-0.3,0.4c-0.1,0.2-0.2,0.5-0.3,0.7c0,0.1-0.1,0.3-0.2,0.4
	c-0.1,0.4-0.2,0.8-0.2,1.2v61.7l-47,27.1V37.2c0-0.4-0.1-0.8-0.2-1.2c0-0.2-0.1-0.3-0.2-0.4c-0.1-0.3-0.2-0.5-0.3-0.7
	c-0.1-0.2-0.2-0.3-0.3-0.4c-0.1-0.2-0.3-0.4-0.4-0.6c-0.2-0.1-0.3-0.2-0.5-0.3c-0.2-0.2-0.3-0.3-0.5-0.4l0,0L67.8,0.6
	c-1.5-0.8-3.2-0.8-4.7,0L6.7,33.1l0,0c-0.2,0.1-0.4,0.3-0.5,0.4c-0.2,0.1-0.3,0.2-0.5,0.3c-0.2,0.2-0.3,0.3-0.4,0.5
	c-0.1,0.2-0.2,0.3-0.3,0.4c-0.1,0.2-0.2,0.5-0.3,0.7c-0.1,0.1-0.1,0.3-0.2,0.4c-0.1,0.4-0.2,0.8-0.2,1.2v193.2
	c0,1.7,0.9,3.2,2.3,4.1l112.8,65c0.3,0.1,0.5,0.2,0.8,0.3c0.1,0,0.2,0.1,0.4,0.2c0.8,0.2,1.6,0.2,2.4,0c0.1,0,0.2-0.1,0.3-0.1
	c0.3-0.1,0.6-0.2,0.8-0.3l112.8-65c1.5-0.8,2.4-2.4,2.3-4.1v-61.7l54.1-31.1c1.5-0.8,2.4-2.4,2.3-4.1V69.1
	C295.7,68.7,295.7,68.3,295.6,67.9z M65.4,10.1L65.4,10.1l47,27l-47,27l-47-27L65.4,10.1z M117.1,45.3v118L89.8,179l-19.7,11.4V72.4
	l27.3-15.7L117.1,45.3z M117.1,287.2L13.7,227.6V45.3l19.7,11.4l27.3,15.7v126.1c0,0.2,0,0.3,0.1,0.5c0,0.2,0,0.5,0.1,0.7l0,0
	c0.1,0.2,0.1,0.4,0.2,0.5c0.1,0.2,0.2,0.4,0.2,0.6l0,0c0.1,0.1,0.2,0.3,0.3,0.4c0.1,0.2,0.3,0.3,0.4,0.5l0,0
	c0.1,0.1,0.3,0.2,0.5,0.3c0.2,0.1,0.3,0.3,0.5,0.4l0,0l0,0l54,30.6L117.1,287.2z M121.8,224.9l-46.9-26.6l49.3-28.4l54.1-31.1l47,27
	l-34.5,19.7L121.8,224.9z M229.9,227.6l-103.4,59.6v-54.1l76.6-43.7l26.8-15.3C229.9,174.1,229.9,227.6,229.9,227.6z M229.9,157.8
	l-19.7-11.3l-27.3-15.7V77.2l19.7,11.4l27.3,15.7V157.8z M234.6,96.1l-47-27.1l47-27l47,27L234.6,96.1z M239.3,157.8v-53.5
	l27.3-15.7l19.7-11.4v53.6l0,0L239.3,157.8z"/>
</svg>
