<?xml version="1.0" encoding="utf-8"?>
<!-- Generator: Adobe Illustrator 25.2.1, SVG Export Plug-In . SVG Version: 6.00 Build 0)  -->
<svg version="1.1" id="object" xmlns="http://www.w3.org/2000/svg" xmlns:xlink="http://www.w3.org/1999/xlink" x="0px" y="0px"
	 viewBox="0 0 300 300" style="enable-background:new 0 0 300 300;" xml:space="preserve">
<g id="path">
	<path d="M152.1,130.9c-2.1,0-2.1,62.2-2.1,62.2c0,4.9,2.8,17.8,5.8,18C155.8,211.1,153.9,130.9,152.1,130.9z"/>
	<path d="M150,0C67,0,0,67,0,150S67,300,150,300S300,233,300,150S233,0,150,0z M164.4,211.7L164.4,211.7c-2.1,1.9-4.1,3.4-6,4.9
		l-0.2,0.2c-1.7,7.5-3,15.2-3.9,22.9h-3.6c-1.1-10.9-2.4-21.2-2.6-21.4l0,0l-0.4-0.4c-4.7-3.4-38.8-29.8-36.7-74.2
		c2.4-47.6,30-71,35.6-75.2c3.4-3.6,3.6-5.1,3.9-8.8c0,0.2,0.2,0.4,0.2,0.4s2.6,6.6,5.4,10.3c2.4,5.4,24.9,19.1,34.3,60.9l0,0
		c0.9,5.6,1.5,11.1,1.5,16.7C191.8,181.7,174.2,202.7,164.4,211.7z"/>
</g>
</svg>
