<?xml version="1.0" encoding="utf-8"?>
<!-- Generator: Adobe Illustrator 25.2.1, SVG Export Plug-In . SVG Version: 6.00 Build 0)  -->
<svg version="1.1" id="object" xmlns="http://www.w3.org/2000/svg" xmlns:xlink="http://www.w3.org/1999/xlink" x="0px" y="0px"
	 viewBox="0 0 300 300" style="enable-background:new 0 0 300 300;" xml:space="preserve">
<g id="path">
	<path d="M296.8,290.1c-2-2-4.1-3.9-6.1-5.9c-5.9-8-13.3-14.9-21.2-20.6c-6.5-4.5-20.8-10.6-23.5-18.2c0,0-0.2-0.2-0.4-0.4
		c4.5-0.4,9.8-2,14.1-3.3c6.9-1.8,13.3-1.4,20.4-3.3c3.3-0.8,6.5-1.8,9.8-2.9v-1.8c-3.7-3.7-6.3-8.6-10.2-12
		c-10.4-9-21.8-17.7-33.7-25.1c-6.3-4.1-14.5-6.7-21.2-10.2c-2.4-1.2-6.5-1.8-8-3.9c-3.7-4.5-5.7-10.4-8.4-15.7
		c-5.9-11.2-11.6-23.7-16.7-35.5c-3.7-8-5.9-15.9-10.4-23.3c-21-34.7-43.9-55.7-79-76.3c-7.5-4.3-16.5-6.1-26.1-8.4
		c-5.1-0.2-10.2-0.6-15.3-0.8c-3.3-1.4-6.5-5.3-9.4-7.1C39.9,8.1,9.9-7.8,1.3,13.2c-5.5,13.3,8.2,26.3,12.9,33.1
		c3.5,4.7,8,10,10.4,15.3c1.4,3.5,1.8,7.1,3.3,10.8c3.3,9,6.3,19,10.6,27.3c2.3,4.3,4.7,8.8,7.5,12.6c1.6,2.3,4.5,3.3,5.1,6.9
		c-2.9,4.1-3.1,10.2-4.7,15.3c-7.4,23.1-4.5,51.6,5.9,68.6c3.3,5.1,11,16.3,21.4,12c9.2-3.7,7.1-15.3,9.8-25.5
		c0.6-2.4,0.2-4.1,1.4-5.7c0,0.2,0,0.4,0,0.4c2.9,5.7,5.7,11.2,8.4,16.9c6.3,10,17.3,20.4,26.5,27.3c4.9,3.7,8.8,10,14.9,12.2v-0.6
		h-0.4c-1.2-1.8-3.1-2.7-4.7-4.1c-3.7-3.7-7.8-8.2-10.6-12.2c-8.6-11.4-16.1-24.1-22.8-37.1c-3.3-6.3-6.1-13.3-8.8-19.6
		c-1.2-2.4-1.2-6.1-3.3-7.4c-3.1,4.5-7.5,8.4-9.8,13.9c-3.9,8.8-4.3,19.6-5.7,30.8c-0.8,0.2-0.4,0-0.8,0.4
		c-6.5-1.6-8.8-8.4-11.2-14.1c-6.1-14.5-7.1-37.8-1.8-54.5c1.4-4.3,7.5-17.7,5.1-21.8c-1.2-3.9-5.3-6.1-7.5-9.2
		c-2.7-3.9-5.5-8.8-7.4-13.1C40.1,81,37.6,68.3,32.3,56.9c-2.4-5.3-6.7-10.8-10.2-15.7c-3.9-5.5-8.2-9.4-11.2-15.9
		c-1-2.3-2.4-5.9-0.8-8.4c0.4-1.6,1.2-2.3,2.9-2.7c2.7-2.3,10.2,0.6,12.9,1.8C33.3,19.1,39.6,22,46,26.3c2.9,2,5.9,5.9,9.6,6.9h4.3
		c6.5,1.4,13.9,0.4,20,2.3c10.8,3.5,20.6,8.6,29.4,14.1c26.7,16.9,48.8,41,63.7,69.8c2.4,4.7,3.5,9,5.7,13.9
		c4.3,10,9.6,20.2,13.9,30c4.3,9.6,8.4,19.4,14.5,27.3c3.1,4.3,15.3,6.5,20.8,8.8c4.1,1.8,10.4,3.5,14.1,5.7
		c6.9,4.3,13.9,9.2,20.4,13.9c3.3,2.4,13.5,7.5,14.1,11.6c-16.3-0.4-29,1.2-39.6,5.7c-3.1,1.2-8,1.2-8.4,5.1
		c1.6,1.6,1.8,4.3,3.3,6.5c2.4,4.1,6.7,9.6,10.6,12.5c4.3,3.3,8.6,6.5,13.1,9.4c8,4.9,16.9,7.8,24.7,12.6c4.5,2.9,9,6.5,13.5,9.6
		c2.3,1.6,3.7,4.3,6.5,5.3v-0.6C298.6,294.8,298.2,292.1,296.8,290.1z"/>
	<path d="M77.4,65.5c-2.8,0-4.7,0.3-6.7,0.8c0,0,0,0.2,0,0.3h0.3c1.3,2.6,3.6,4.4,5.2,6.7c1.3,2.6,2.4,5.2,3.8,7.8
		c0.2-0.2,0.3-0.3,0.3-0.3c2.3-1.6,3.4-4.2,3.4-8.1c-1-1.1-1.1-2.3-2-3.4C80.9,67.7,78.7,66.9,77.4,65.5z"/>
</g>
</svg>
