<?xml version="1.0" encoding="utf-8"?>
<!-- Generator: Adobe Illustrator 25.2.1, SVG Export Plug-In . SVG Version: 6.00 Build 0)  -->
<svg version="1.1" id="object" xmlns="http://www.w3.org/2000/svg" xmlns:xlink="http://www.w3.org/1999/xlink" x="0px" y="0px"
	 viewBox="0 0 300 300" style="enable-background:new 0 0 300 300;" xml:space="preserve">
<path id="path" d="M149.9,300c-4,0-8-1.1-11.6-3.1l-36.7-21.7c-5.5-3.1-2.8-4.2-1-4.8c7.3-2.6,8.8-3.1,16.6-7.6
	c0.8-0.5,1.9-0.3,2.7,0.2l28.2,16.7c1,0.6,2.4,0.6,3.4,0l110-63.5c1-0.6,1.7-1.8,1.7-3V86.5c0-1.2-0.7-2.4-1.7-3L151.6,20
	c-1-0.6-2.4-0.6-3.4,0L38.4,83.5c-1.1,0.6-1.7,1.8-1.7,3v126.9c0,1.2,0.7,2.4,1.7,2.9l30.1,17.4c16.4,8.2,26.4-1.4,26.4-11.1V97.3
	c0-1.8,1.4-3.2,3.2-3.2H112c1.7,0,3.2,1.4,3.2,3.2v125.3c0,21.8-11.9,34.3-32.6,34.3c-6.4,0-11.4,0-25.3-6.9l-28.8-16.6
	c-7.1-4.1-11.6-11.8-11.6-20.1V86.5c0-8.2,4.4-16,11.6-20.1L138.4,2.9c7-3.9,16.2-3.9,23.1,0l110,63.5c7.1,4.1,11.6,11.8,11.6,20.1
	v126.9c0,8.2-4.4,15.9-11.6,20.1l-110,63.5C158,298.9,154,300,149.9,300z M238.7,174.9c0-23.7-16.1-30.1-49.8-34.5
	c-34.2-4.5-37.6-6.8-37.6-14.8c0-6.6,2.9-15.4,28.2-15.4c22.6,0,30.9,4.9,34.4,20.1c0.3,1.4,1.6,2.5,3.1,2.5h14.3
	c0.9,0,1.7-0.4,2.3-1c0.6-0.7,0.9-1.5,0.8-2.4c-2.2-26.3-19.7-38.5-54.9-38.5c-31.4,0-50.1,13.2-50.1,35.4c0,24,18.6,30.7,48.7,33.7
	c36,3.5,38.8,8.8,38.8,15.9c0,12.3-9.9,17.5-33,17.5c-29.1,0-35.5-7.3-37.6-21.8c-0.2-1.5-1.5-2.7-3.2-2.7h-14.2
	c-1.8,0-3.2,1.4-3.2,3.2c0,18.5,10.1,40.6,58.2,40.6C218.7,212.6,238.7,198.9,238.7,174.9L238.7,174.9z"/>
</svg>
