<?xml version="1.0" encoding="utf-8"?>
<!-- Generator: Adobe Illustrator 25.2.1, SVG Export Plug-In . SVG Version: 6.00 Build 0)  -->
<svg version="1.1" id="object" xmlns="http://www.w3.org/2000/svg" xmlns:xlink="http://www.w3.org/1999/xlink" x="0px" y="0px"
	 viewBox="0 0 300 300" style="enable-background:new 0 0 300 300;" xml:space="preserve">
<path id="path" d="M150,79c80.3,0,142.1,33.8,142.1,71s-61.8,71-142.1,71C69.7,221,7.9,187.2,7.9,150S69.7,79,150,79 M150,71.1
	C67.2,71.1,0,106.4,0,150s67.2,78.9,150,78.9s150-35.3,150-78.9S232.8,71.1,150,71.1z M102.3,143.7c-3.7,19-16.8,17-32.8,17
	l6.4-33.1C93.7,127.6,105.8,125.7,102.3,143.7L102.3,143.7z M45.7,194.2h17.2l4.1-21c19.3,0,31.2,1.4,42.3-9
	c12.2-11.2,15.4-31.3,6.7-41.3c-4.5-5.2-11.8-7.8-21.8-7.8H61L45.7,194.2z M132.7,94.1h17.1l-4.1,21c14.8,0,28.5-1.1,35.1,5
	c6.9,6.4,3.6,14.5-3.9,53h-17.3c7.2-37.2,8.6-40.3,6-43.1c-2.5-2.7-8.3-2.2-22.2-2.2l-8.8,45.3h-17.1L132.7,94.1L132.7,94.1z
	 M236.7,143.7c-3.8,19.3-17.2,17-32.9,17l6.4-33.1C228.2,127.6,240.2,125.7,236.7,143.7L236.7,143.7z M180.1,194.2h17.2l4.1-21
	c20.2,0,31.5,1.2,42.3-9c12.2-11.2,15.4-31.3,6.7-41.3c-4.5-5.2-11.8-7.8-21.8-7.8h-33.1L180.1,194.2z"/>
</svg>
