<?xml version="1.0" encoding="utf-8"?>
<!-- Generator: Adobe Illustrator 25.2.1, SVG Export Plug-In . SVG Version: 6.00 Build 0)  -->
<svg version="1.1" id="object" xmlns="http://www.w3.org/2000/svg" xmlns:xlink="http://www.w3.org/1999/xlink" x="0px" y="0px"
	 viewBox="0 0 300 300" style="enable-background:new 0 0 300 300;" xml:space="preserve">
<path id="path" d="M141.8,207.8C141.8,208,141.6,208.2,141.8,207.8z M258.9,167c-9.4,0-18.7,2.1-27.3,6.4c-2.8-5.6-5.6-10.5-6-14.2
	c-0.6-4.3-1.1-6.9-0.4-11.8c0.6-5.2,3.7-12.2,3.7-12.9c0-0.4-0.6-3-6.7-3.2s-11.4,1.1-11.8,2.8c-1.1,3-1.9,6-2.6,9
	c-1.3,5.4-12.2,24.9-18.7,35.2c-2.1-4.1-3.9-7.5-4.1-10.3c-0.6-4.3-1.1-6.9-0.4-11.8c0.6-4.9,3.7-12.2,3.7-12.9c0-0.4-0.6-3-6.7-3.2
	s-11.4,1.1-11.8,2.8c-0.6,1.5-1.3,5.4-2.6,9c-1.3,3.7-15.9,36.3-19.8,44.9c-1.9,4.3-3.7,7.7-4.9,10.1c-0.2,0.4-0.4,0.6-0.4,0.9
	c0.2-0.2,0.2-0.4,0.2-0.4c-1.1,1.9-1.7,3.2-1.7,3.2l0,0c-0.9,1.5-1.7,2.8-2.1,2.8c-0.2,0-0.9-3.9,0.2-9.4c2.1-11.4,7.5-29,7.3-29.6
	c0-0.4,1.1-3.4-3.4-4.9c-4.3-1.5-5.8,1.1-6.2,1.1c-0.4,0-0.6,0.9-0.6,0.9s4.7-20-9-20c-8.6,0-20.6,9.4-26.6,18
	c-3.7,1.9-11.8,6.4-20.2,11c-3.2,1.7-6.7,3.7-9.7,5.4c-0.2-0.2-0.4-0.4-0.6-0.6c-17-17.8-48.1-30.5-46.6-54.6
	c0.4-8.8,3.4-31.8,59.7-59.9c46-23,82.9-16.5,89.1-2.6c9,20-19.8,57.1-67.4,62.5c-18.3,1.9-27.7-4.9-30.3-7.7
	c-2.6-2.8-2.8-3-3.9-2.4c-1.5,0.9-0.6,3.2,0,4.7c1.5,3.7,7.3,10.3,17.2,13.5c8.8,2.8,30.1,4.5,56.1-5.6c29-11.2,51.5-42.3,44.9-68.5
	c-6.4-26.2-50.5-34.8-92.1-20.2c-24.7,8.8-51.5,22.6-70.9,40.6C2.4,106.4-1.2,125.1,0.3,132.8c5.4,27.7,43.4,45.7,58.8,59.1
	c-0.9,0.4-1.5,0.9-2.1,1.1c-7.7,3.9-36.7,19.1-44,35.2c-8.2,18.3,1.3,31.4,7.7,33.1c19.5,5.4,39.7-4.3,50.5-20.4s9.4-37.2,4.5-46.8
	c0-0.2-0.2-0.2-0.2-0.4c1.9-1.1,4.1-2.4,6-3.4c3.9-2.4,7.7-4.5,11-6.2c-1.9,5.2-3.2,11.2-3.9,20c-0.9,10.3,3.4,23.6,9,29
	c2.4,2.4,5.4,2.4,7.3,2.4c6.4,0,9.4-5.4,12.7-11.8c4.1-7.7,7.5-17,7.5-17s-4.5,24.5,7.7,24.5c4.5,0,8.8-5.6,10.7-8.6l0,0
	c0,0,0-0.2,0.4-0.6c0.4-0.6,0.6-1.1,0.6-1.1v-0.2c1.7-3,5.6-10.1,11.6-21.7c7.5-15,14.8-33.5,14.8-33.5c0.6,4.1,1.7,8.2,3,12
	c1.3,4.5,4.1,9.4,6.2,14.2c-1.7,2.4-2.8,3.9-2.8,3.9l0,0c-1.5,1.9-3,3.9-4.7,5.8c-6,7.1-13.1,15.2-14.2,17.6
	c-1.1,2.8-0.9,4.9,1.3,6.4c1.5,1.3,4.5,1.5,7.3,1.1c5.4-0.4,9.2-1.7,11-2.6c3.4-1.3,6.7-2.8,9.4-4.9c5.8-4.3,9.4-10.5,9-18.7
	c-0.2-4.5-1.7-9-3.4-13.3c0.4-0.9,1.1-1.5,1.5-2.4c9.2-13.5,16.5-28.6,16.5-28.6c0.6,4.1,1.7,8.2,3,12c1.1,3.9,3.4,7.9,5.4,12
	c-8.8,7.1-14.2,15.2-16.1,20.6c-3.4,10.1-0.9,14.6,4.3,15.5c2.4,0.4,5.6-0.6,7.9-1.7c3.7-1.3,7.1-3,10.1-5.2
	c5.8-4.3,11.6-10.3,11.2-18.7c-0.2-3.7-1.1-7.5-2.6-11c7.3-3,17-4.7,29.2-3.4c26.2,3,31.4,19.3,30.3,26.2
	c-1.1,6.9-6.4,10.5-8.4,11.8c-1.9,1.1-2.4,1.5-2.4,2.4c0.2,1.3,1.1,1.1,2.6,0.9c2.1-0.4,13.7-5.6,14.2-18.3
	C301.4,184.4,286.2,166.8,258.9,167L258.9,167z M57.2,234.8c-8.6,9.4-20.8,13.1-26,10.1c-5.6-3.2-3.4-17.2,7.3-27.3
	c6.4-6,14.8-11.8,20.4-15.2c1.3-0.9,3-1.9,5.4-3.2c0.4-0.2,0.6-0.4,0.6-0.4c0.4-0.2,0.9-0.4,1.3-0.9C70.1,212.3,66.4,225,57.2,234.8
	L57.2,234.8z M120.4,191.9c-3,7.3-9.4,26.2-13.1,25.1c-3.2-0.9-5.4-15.2-0.6-29.2c2.4-7.1,7.3-15.5,10.3-18.9
	c4.7-5.4,9.9-7.1,11.2-4.9C129.6,167,122.3,187.4,120.4,191.9L120.4,191.9z M172.5,216.8c-1.3,0.6-2.4,1.1-3,0.9
	c-0.4-0.2,0.4-1.1,0.4-1.1s6.4-7.1,9-10.1c1.5-1.9,3.2-4.1,5.2-6.4c0,0.2,0,0.4,0,0.6C184.4,208.8,176.2,214.6,172.5,216.8
	L172.5,216.8z M212.7,207.6c-0.9-0.6-0.9-2.8,2.4-9.7c1.3-2.6,4.1-7.1,9-11.6c0.6,1.7,0.9,3.4,0.9,5.2
	C224.9,202,217.4,206.1,212.7,207.6L212.7,207.6z"/>
</svg>
