<?xml version="1.0" encoding="utf-8"?>
<!-- Generator: Adobe Illustrator 25.2.1, SVG Export Plug-In . SVG Version: 6.00 Build 0)  -->
<svg version="1.1" id="object" xmlns="http://www.w3.org/2000/svg" xmlns:xlink="http://www.w3.org/1999/xlink" x="0px" y="0px"
	 viewBox="0 0 300 300" style="enable-background:new 0 0 300 300;" xml:space="preserve">
<path id="path" d="M150,0H0v150v150h150h150V150V0H150z M172,163.3h-19.5h-19.5v55.5v55.5h-13.8h-13.8v-55.5v-55.5H85.8H66.3
	l0.1-12.3l0.2-12.2l52.4-0.2c28.8,0,52.6,0,52.7,0.2c0.2,0.1,0.3,5.7,0.3,12.4L172,163.3L172,163.3z M274,251.4
	c-4.8,12.5-16.6,21-33.2,23.8c-5.1,0.9-17.3,0.8-22.9-0.2c-12-2.1-23.5-8.1-30.5-15.9c-2.8-3-8.1-11-7.8-11.6
	c0.1-0.2,1.4-0.9,2.8-1.8c1.3-0.8,6.4-3.7,11.1-6.4l8.6-5l1.8,2.7c2.5,3.9,8.1,9.1,11.4,10.9c9.6,5.1,22.7,4.3,29.2-1.5
	c2.8-2.5,3.9-5.1,3.9-9c0-3.5-0.4-5-2.2-7.6c-2.3-3.3-7.1-6.2-20.6-12c-15.5-6.7-22.1-10.8-28.2-17.4c-3.5-3.8-6.9-9.9-8.2-15
	c-1.1-4.2-1.4-14.9-0.5-19.1c3.2-15,14.5-25.4,30.8-28.5c5.3-1,17.6-0.6,22.8,0.7c7.6,1.9,13.4,5.3,18.8,10.8c2.8,3,6.9,8.3,7.2,9.6
	c0.1,0.4-12.9,9.1-20.8,14.1c-0.3,0.2-1.4-1-2.7-3c-3.9-5.6-7.9-8.1-14.1-8.5c-9.1-0.6-15,4.1-14.9,12.1c0,2.3,0.3,3.7,1.3,5.6
	c2,4.1,5.7,6.6,17.4,11.7c21.5,9.2,30.7,15.3,36.4,24C276.9,224.5,278.3,239.9,274,251.4z"/>
</svg>
