<?xml version="1.0" encoding="utf-8"?>
<!-- Generator: Adobe Illustrator 25.2.1, SVG Export Plug-In . SVG Version: 6.00 Build 0)  -->
<svg version="1.1" id="object" xmlns="http://www.w3.org/2000/svg" xmlns:xlink="http://www.w3.org/1999/xlink" x="0px" y="0px"
	 viewBox="0 0 300 300" style="enable-background:new 0 0 300 300;" xml:space="preserve">
<style type="text/css">
	.st0{fill:#007BFF;}
	.st1{fill:#0F4F9F;}
</style>
<g id="path">
	<g>
		<path class="st0" d="M84,116.3c0.3,6.2,0.6,9.3,1.4,15.8c0.5,3.9-0.5,6.5-2.8,7.5c-17.2,7.5-34.4,15.2-51.4,23.1
			c19.3,7.5,39.4,11.9,59.7,15.5c2.7,0.3,4.7,2.4,5.9,6.1c1.9,5.9,2.9,8.7,5.1,14.2c1.2,3.1,0.1,4.4-3.4,3.9
			c-26.4-4.8-51-11.8-75.7-22.2c-3.2-1.5-5.6-4.9-6.8-10.4c-1.2-5.7-1.7-8.6-2.2-14.5c-0.6-5.6,0.7-9.3,3.4-10.9
			c20.4-11.3,41.3-21.4,62.4-31.2C82.3,111.8,83.8,112.8,84,116.3z"/>
		<path class="st1" d="M153.5,220.8c-5.6,0.9-8.4,1.3-14.3,2.4c-3,0.6-4.7-0.4-4.9-2.9c-1.4-21.9,0.6-43.9,2.6-65.5
			c2.3-23.3,5.5-46.7,8.2-70.1c0.5-2.9,1.9-4.4,4.4-4.8c6.5-1,9.8-1.6,16.6-2.9c3.5-0.7,5.3,0.4,5.1,3.3
			C167.6,125.6,158,171,157,216.6C156.9,219.1,155.8,220.4,153.5,220.8z"/>
		<path class="st0" d="M206.2,117c-1.4-6.3-2.2-9.5-3.9-15.5c-1-3.5,0.4-4.8,4.1-4c26.2,5.1,50.5,12.3,74.8,23.4
			c3.1,1.5,5,5.1,5.4,10.6c0.4,5.8,0.5,8.8,0.3,14.7c-0.2,5.6-1.9,9.2-4.8,10.7c-21.2,10.9-42.8,20.9-64.5,30.8
			c-2.9,1.2-4.2,0.2-4.2-3c0.1-5.7,0-8.7-0.2-14.8c-0.2-3.9,0.9-6.4,3.4-7.2c18-7.7,36-15.5,53.8-23.7c-19-7.5-38.6-11.9-58.7-15.5
			C208.9,123,207.1,120.8,206.2,117z"/>
	</g>
</g>
</svg>
